<svg width="1200" height="900" viewBox="0 0 1200 900" fill="none" xmlns="http://www.w3.org/2000/svg">
  <rect width="1200" height="900" rx="48" fill="#080D12"/>
  <rect x="52" y="52" width="1096" height="796" rx="36" fill="url(#bg)"/>
  <circle cx="922" cy="176" r="172" fill="#22D3EE" fill-opacity="0.18"/>
  <circle cx="286" cy="746" r="206" fill="#84CC16" fill-opacity="0.1"/>
  <rect x="118" y="152" width="964" height="562" rx="36" fill="#0D151C" stroke="rgba(255,255,255,0.08)"/>
  <rect x="118" y="152" width="964" height="82" rx="36" fill="#111B24"/>
  <circle cx="176" cy="193" r="10" fill="#EF4444"/>
  <circle cx="212" cy="193" r="10" fill="#F59E0B"/>
  <circle cx="248" cy="193" r="10" fill="#22C55E"/>
  <rect x="170" y="282" width="232" height="380" rx="24" fill="#101A22"/>
  <rect x="438" y="282" width="304" height="178" rx="24" fill="#101A22"/>
  <rect x="774" y="282" width="256" height="178" rx="24" fill="#101A22"/>
  <rect x="438" y="484" width="592" height="178" rx="24" fill="#101A22"/>
  <rect x="206" y="330" width="140" height="14" rx="7" fill="#22D3EE" fill-opacity="0.9"/>
  <rect x="206" y="362" width="108" height="12" rx="6" fill="#FFFFFF" fill-opacity="0.18"/>
  <rect x="206" y="414" width="152" height="88" rx="20" fill="#163445"/>
  <rect x="206" y="528" width="152" height="88" rx="20" fill="#15202A"/>
  <path d="M488 412C512 370 560 342 614 342C668 342 716 370 740 412" stroke="#22D3EE" stroke-width="18" stroke-linecap="round"/>
  <path d="M488 408C514 432 558 446 614 446C670 446 714 432 740 408" stroke="#84CC16" stroke-width="18" stroke-linecap="round"/>
  <rect x="820" y="334" width="164" height="18" rx="9" fill="#84CC16" fill-opacity="0.88"/>
  <rect x="820" y="372" width="132" height="12" rx="6" fill="#FFFFFF" fill-opacity="0.16"/>
  <rect x="480" y="528" width="188" height="18" rx="9" fill="#22D3EE" fill-opacity="0.88"/>
  <rect x="480" y="566" width="142" height="12" rx="6" fill="#FFFFFF" fill-opacity="0.16"/>
  <rect x="480" y="614" width="94" height="14" rx="7" fill="#FFFFFF" fill-opacity="0.12"/>
  <rect x="710" y="528" width="122" height="92" rx="20" fill="#17313F"/>
  <rect x="856" y="528" width="122" height="92" rx="20" fill="#1A2630"/>
  <text x="118" y="780" fill="#ECFEFF" font-family="Arial, sans-serif" font-size="64" font-weight="700">Novare</text>
  <text x="118" y="832" fill="#B3CBD2" font-family="Arial, sans-serif" font-size="26" letter-spacing="4">OPS DASHBOARD / INTERNAL WORKFLOW SYSTEM</text>
  <defs>
    <linearGradient id="bg" x1="102" y1="88" x2="1020" y2="800" gradientUnits="userSpaceOnUse">
      <stop stop-color="#091118"/>
      <stop offset="0.5" stop-color="#0D161E"/>
      <stop offset="1" stop-color="#081017"/>
    </linearGradient>
  </defs>
</svg>
